<svg width="1200" height="630" viewBox="0 0 1200 630" fill="none" xmlns="http://www.w3.org/2000/svg">
<rect width="1200" height="630" fill="#00204E"/>
<g clip-path="url(#clip0_112_5)">
<path d="M623.201 431.405C627.214 431.405 631.063 429.811 633.901 426.973C636.738 424.136 638.332 420.287 638.332 416.274C638.332 412.261 636.738 408.412 633.901 405.575C631.063 402.737 627.214 401.143 623.201 401.143C619.188 401.143 615.339 402.737 612.502 405.575C609.664 408.412 608.07 412.261 608.07 416.274C608.07 420.287 609.664 424.136 612.502 426.973C615.339 429.811 619.188 431.405 623.201 431.405ZM643.376 370.061C661.218 377.816 673.638 395.595 673.638 416.274C673.638 444.141 651.068 466.711 623.201 466.711C595.335 466.711 572.764 444.141 572.764 416.274C572.764 395.595 585.184 377.816 603.026 370.061V335.574H562.676C551.517 335.574 542.501 326.559 542.501 315.399C542.501 304.24 551.517 295.225 562.676 295.225H724.076V260.738C706.234 252.983 693.813 235.204 693.813 214.525C693.813 186.658 716.384 164.088 744.251 164.088C772.117 164.088 794.688 186.658 794.688 214.525C794.688 235.204 782.268 252.983 764.426 260.738V295.225H925.825C936.984 295.225 946 304.24 946 315.399C946 326.559 936.984 335.574 925.825 335.574H885.475V370.061C903.317 377.816 915.738 395.595 915.738 416.274C915.738 444.141 893.167 466.711 865.3 466.711C837.434 466.711 814.863 444.141 814.863 416.274C814.863 395.595 827.283 377.816 845.125 370.061V335.574H643.376V370.061ZM850.169 416.274C850.169 420.287 851.763 424.136 854.601 426.973C857.439 429.811 861.287 431.405 865.3 431.405C869.313 431.405 873.162 429.811 876 426.973C878.837 424.136 880.431 420.287 880.431 416.274C880.431 412.261 878.837 408.412 876 405.575C873.162 402.737 869.313 401.143 865.3 401.143C861.287 401.143 857.439 402.737 854.601 405.575C851.763 408.412 850.169 412.261 850.169 416.274ZM744.251 229.656C748.264 229.656 752.112 228.062 754.95 225.224C757.788 222.387 759.382 218.538 759.382 214.525C759.382 210.512 757.788 206.663 754.95 203.825C752.112 200.988 748.264 199.394 744.251 199.394C740.238 199.394 736.389 200.988 733.551 203.825C730.714 206.663 729.12 210.512 729.12 214.525C729.12 218.538 730.714 222.387 733.551 225.224C736.389 228.062 740.238 229.656 744.251 229.656Z" fill="#CCD2DC"/>
</g>
<g clip-path="url(#clip1_112_5)">
<path d="M334.7 199.394C338.713 199.394 342.561 200.988 345.399 203.825C348.237 206.663 349.831 210.512 349.831 214.525C349.831 218.538 348.237 222.386 345.399 225.224C342.561 228.062 338.713 229.656 334.7 229.656C330.687 229.656 326.838 228.062 324 225.224C321.163 222.386 319.569 218.538 319.569 214.525C319.569 210.512 321.163 206.663 324 203.825C326.838 200.988 330.687 199.394 334.7 199.394ZM354.875 260.738C372.717 252.983 385.137 235.204 385.137 214.525C385.137 186.658 362.566 164.087 334.7 164.087C306.833 164.087 284.262 186.658 284.262 214.525C284.262 235.204 296.683 252.983 314.525 260.738V295.224H274.175C263.016 295.224 254 304.24 254 315.399C254 326.559 263.016 335.574 274.175 335.574H435.574V370.061C417.732 377.816 405.312 395.595 405.312 416.274C405.312 444.141 427.883 466.711 455.749 466.711C483.616 466.711 506.187 444.141 506.187 416.274C506.187 395.595 493.766 377.816 475.924 370.061V335.574H637.324C648.483 335.574 657.499 326.559 657.499 315.399C657.499 304.24 648.483 295.224 637.324 295.224H596.974V260.738C614.816 252.983 627.236 235.204 627.236 214.525C627.236 186.658 604.665 164.087 576.799 164.087C548.932 164.087 526.362 186.658 526.362 214.525C526.362 235.204 538.782 252.983 556.624 260.738V295.224H354.875V260.738ZM561.668 214.525C561.668 210.512 563.262 206.663 566.099 203.825C568.937 200.988 572.786 199.394 576.799 199.394C580.812 199.394 584.661 200.988 587.498 203.825C590.336 206.663 591.93 210.512 591.93 214.525C591.93 218.538 590.336 222.386 587.498 225.224C584.661 228.062 580.812 229.656 576.799 229.656C572.786 229.656 568.937 228.062 566.099 225.224C563.262 222.386 561.668 218.538 561.668 214.525ZM455.749 401.143C459.762 401.143 463.611 402.737 466.449 405.575C469.286 408.412 470.88 412.261 470.88 416.274C470.88 420.287 469.286 424.136 466.449 426.973C463.611 429.811 459.762 431.405 455.749 431.405C451.736 431.405 447.888 429.811 445.05 426.973C442.212 424.136 440.618 420.287 440.618 416.274C440.618 412.261 442.212 408.412 445.05 405.575C447.888 402.737 451.736 401.143 455.749 401.143Z" fill="#CCD2DC"/>
</g>
<defs>
<clipPath id="clip0_112_5">
<rect width="403.499" height="322.799" fill="white" transform="matrix(1 0 0 -1 542.501 476.799)"/>
</clipPath>
<clipPath id="clip1_112_5">
<rect width="403.499" height="322.799" fill="white" transform="translate(254 154)"/>
</clipPath>
</defs>
</svg>
